<?xml version="1.0" encoding="utf-8"?>
<!-- Generator: Adobe Illustrator 19.0.0, SVG Export Plug-In . SVG Version: 6.00 Build 0)  -->
<svg version="1.1" id="图层_1" xmlns="http://www.w3.org/2000/svg" xmlns:xlink="http://www.w3.org/1999/xlink" x="0px" y="0px"
	 viewBox="0 0 300 300" style="enable-background:new 0 0 300 300;" xml:space="preserve">
<style type="text/css">
	.st0{fill:url(#XMLID_34_);}
	.st1{fill:#9FA0A0;}
	.st2{fill:#727171;}
	.st3{fill:#898989;}
	.st4{fill:#B5B5B6;}
	.st5{fill:#FFFFFF;}
	.st6{fill:url(#XMLID_35_);}
	.st7{fill:url(#XMLID_36_);}
	.st8{fill:url(#XMLID_37_);}
	.st9{fill:#F2F0F3;}
</style>
<radialGradient id="XMLID_34_" cx="204.5098" cy="195.5361" r="224.681" fx="207.7744" fy="154.7716" gradientTransform="matrix(1 0 0 -1 0 300)" gradientUnits="userSpaceOnUse">
	<stop  offset="8.239999e-002" style="stop-color:#FFFFFF"/>
	<stop  offset="0.4559" style="stop-color:#E7E6E6"/>
	<stop  offset="1" style="stop-color:#BEBCBC"/>
</radialGradient>
<circle id="XMLID_33_" class="st0" cx="149.6" cy="150" r="150"/>
<g id="XMLID_19_">
	<polygon id="XMLID_32_" class="st1" points="119.8,161.5 190.8,137.4 191.2,138.7 120.3,162.8 	"/>
	<path id="XMLID_31_" class="st2" d="M103.5,216.8L103.5,216.8l1-0.8c0,0,6.5,8,16.5,17.9l0,0c10,9.9,23.5,19.9,37.5,27.2v1.7
		l-0.6-0.2C128.8,248.7,103.5,216.8,103.5,216.8L103.5,216.8z"/>
	<path id="XMLID_30_" class="st1" d="M211.2,245.5c10-18.7,15.2-36.9,17.8-50.4l0,0c2.7-13.5,2.8-22.3,2.8-22.3l0,0l1.3,0
		c0,0.1-0.7,35.6-20.8,73.3l0,0L211.2,245.5L211.2,245.5z"/>
	<path id="XMLID_29_" d="M74.9,119.4c0-31.2,16.4-63.3,16.4-63.3l0,0h0l1.2,0.6c0,0-4.1,8-8.1,19.8l0,0c-4.1,11.8-8.1,27.5-8.1,42.9
		l0,0c0,2.2,0.1,4.4,0.3,6.6l0,0l-1.3,0.1C75,123.8,74.9,121.6,74.9,119.4L74.9,119.4z"/>
	<path id="XMLID_28_" class="st3" d="M170.2,51.5c-11.5-8.3-20.9-13.3-21-13.3l0,0l0.6-1.2c0,0,38.3,20.1,54.5,47.1l0,0l-1.2,0.7
		C195.2,71.5,181.7,59.9,170.2,51.5L170.2,51.5z"/>
	<path id="XMLID_27_" d="M43.5,247.5c0-20.7,10.7-37.4,10.7-37.5l0,0h0l1.1,0.7c0,0-2.6,4.1-5.2,10.8l0,0c-2.6,6.7-5.3,15.9-5.3,26
		l0,0c0,1.6,0.1,3.3,0.2,5l0,0l-1.3,0.1C43.6,250.9,43.5,249.2,43.5,247.5L43.5,247.5z"/>
	<path id="XMLID_26_" class="st4" d="M275.9,149.5c-5.5-4-9.4-5.4-9.4-5.4l0,0h0l0.5-1.3c0.1,0,16.3,6.1,28.5,26.4l0,0l-1.2,0.7
		C288.3,159.9,281.3,153.4,275.9,149.5L275.9,149.5z"/>
	<path id="XMLID_25_" class="st1" d="M251.7,89.7c0,0,4.9-14,4.9-33.4l0,0c0-2.2-0.1-4.4-0.2-6.6l0,0l0.7,0c0.1,2.3,0.2,4.5,0.2,6.7
		l0,0c0,19.5-4.9,33.6-4.9,33.6l0,0L251.7,89.7L251.7,89.7z"/>
	<path id="XMLID_24_" d="M5.6,129l1.2-0.7c2.2,3.8,9.5,10.2,16.2,15.4l0,0c6.7,5.3,12.8,9.6,12.8,9.6l0,0l-0.8,1.1
		C35,154.4,10.5,137.3,5.6,129L5.6,129z"/>
	<path id="XMLID_23_" d="M13.3,87.6c23.5-40.3,55.1-50.7,55.1-50.7l0,0v0l0.2,0.6c0,0-7.8,2.6-18.6,10.2l0,0
		C39.2,55.3,25.6,67.9,13.9,88l0,0L13.3,87.6L13.3,87.6z"/>
	<path id="XMLID_22_" class="st5" d="M156.9,11c0,0,36.4-2.7,69.6,10.7c0,0-37.7-16.7-69.6-12.5V11z"/>
	<path id="XMLID_21_" class="st1" d="M234.1,260.4c0,0,12.5-0.8,26.3-12.3c0,0-8.3,9.5-26.9,15L234.1,260.4z"/>
	<path id="XMLID_20_" class="st1" d="M151.1,285.7c0,0-14.3,5.7-40.1,7c0,0,24.8,1,40.8-4.7L151.1,285.7z"/>
</g>
<g id="XMLID_9_">
	
		<radialGradient id="XMLID_35_" cx="69.8279" cy="342.1042" r="124.0992" gradientTransform="matrix(1 0 0 -1 0 300)" gradientUnits="userSpaceOnUse">
		<stop  offset="0" style="stop-color:#72706D"/>
		<stop  offset="4.190000e-002" style="stop-color:#74716F"/>
		<stop  offset="0.1764" style="stop-color:#73706E"/>
		<stop  offset="0.3133" style="stop-color:#676464"/>
		<stop  offset="0.4502" style="stop-color:#565353"/>
		<stop  offset="0.5872" style="stop-color:#433F3E"/>
		<stop  offset="0.7242" style="stop-color:#262423"/>
		<stop  offset="0.8617" style="stop-color:#090808"/>
		<stop  offset="1" style="stop-color:#000000"/>
	</radialGradient>
	<path id="XMLID_18_" class="st6" d="M63.1,38.7c15.9-21.1,47.6-33.6,47.6-33.6C139.6,1.4,160,8.8,160,8.8l-8,30.8
		c-25.9,2.7-62.1,19.6-62.1,19.6L63.1,38.7z"/>
	<path id="XMLID_17_" d="M75.2,118.6c0,0,36.6,35.7,47.8,42c0,0-13.8,44.2-15.6,58.5c0,0-32.6,5.4-55.8-4.5c0,0-17-25.9-19.2-62.9
		C32.3,151.6,57.3,125.8,75.2,118.6z"/>
	
		<radialGradient id="XMLID_36_" cx="160.9007" cy="130.4983" r="179.0651" gradientTransform="matrix(1 0 0 -1 0 300)" gradientUnits="userSpaceOnUse">
		<stop  offset="0" style="stop-color:#000000"/>
		<stop  offset="0.3532" style="stop-color:#040404"/>
		<stop  offset="0.495" style="stop-color:#161515"/>
		<stop  offset="0.5988" style="stop-color:#332F2E"/>
		<stop  offset="0.6842" style="stop-color:#454141"/>
		<stop  offset="0.7582" style="stop-color:#545252"/>
		<stop  offset="0.8243" style="stop-color:#626060"/>
		<stop  offset="0.8845" style="stop-color:#6E6B6A"/>
		<stop  offset="0.9402" style="stop-color:#757270"/>
		<stop  offset="0.9902" style="stop-color:#73716E"/>
		<stop  offset="1" style="stop-color:#72706D"/>
	</radialGradient>
	<path id="XMLID_16_" class="st7" d="M154.2,259.2c0,0,39.3-3.6,61.2-21c0,0,10.7,14.3,22.3,22.3c0,0-23,27.3-41.4,32
		c0,0-23.8,5.5-51.9-3.9C144.4,288.7,151.1,277.1,154.2,259.2z"/>
	<path id="XMLID_15_" d="M200.2,80.2c0,0-8.9,42-14.3,58.9c0,0,31.7,26.3,46,40.6c0,0,33.9-20.5,38.4-34.4c0,0,1.3-32.6-17-60.7
		C253.3,84.7,231,71.7,200.2,80.2z"/>
	
		<radialGradient id="XMLID_37_" cx="205.9773" cy="197.4325" r="63.6169" gradientTransform="matrix(1 0 0 -1 0 300)" gradientUnits="userSpaceOnUse">
		<stop  offset="0" style="stop-color:#72706D"/>
		<stop  offset="0.1376" style="stop-color:#757270"/>
		<stop  offset="0.2932" style="stop-color:#6B6968"/>
		<stop  offset="0.4477" style="stop-color:#5B5858"/>
		<stop  offset="0.5979" style="stop-color:#474343"/>
		<stop  offset="0.7426" style="stop-color:#2C2928"/>
		<stop  offset="0.8793" style="stop-color:#0B0A0A"/>
		<stop  offset="1" style="stop-color:#000000"/>
	</radialGradient>
	<path id="XMLID_14_" class="st8" d="M202.6,82.6c0,0-8.5,39.9-13.6,56c0,0,30.1,25,43.7,38.6c0,0,32.2-19.5,36.5-32.7
		c0,0,1.3-31-16.1-57.7C253.1,86.9,231.8,74.6,202.6,82.6z"/>
	<path id="XMLID_13_" d="M16.3,81.2C5.6,101.8-0.4,125.2-0.4,150c0,0.3,0,0.5,0,0.8c2-6.6,5.3-15.8,9.1-20.1
		C8.7,130.7,8.7,100.9,16.3,81.2z"/>
	<path id="XMLID_12_" d="M44.8,246.3c0,0-9.2-3.6-18.2-10.4c17.6,25.2,42.9,44.8,72.3,55.3C83.7,283.8,57.1,268.4,44.8,246.3z"/>
	<path id="XMLID_11_" d="M288.6,206.5c6.7-16.6,10.6-34.6,11-53.5c-1.4,5.5-3.5,10.8-6.5,14.3C293,167.3,292.7,185.9,288.6,206.5z"
		/>
	<path id="XMLID_10_" d="M256.9,53c10.2,3.9,20.2,18.4,26.8,29.8c-13.7-27.2-35.3-49.6-61.9-64.2C240,31.5,256.9,53,256.9,53z"/>
</g>
<g id="XMLID_2_">
	<path id="XMLID_8_" class="st5" d="M130.6,160.7L180,144c3.5-1.2,8.6-0.2,11.4,2.2l33.6,29.2c2.8,2.4,2.7,2.6-0.3,0.3l-33.5-25.4
		c-2.9-2.2-8.2-3.3-11.8-2.3l-48.7,13C127.2,162,127.1,161.8,130.6,160.7z"/>
	<path id="XMLID_7_" class="st5" d="M73.5,117.6c0,0,3-39.5,15.7-58.3L63.8,40.6l22.1,19.1C85.9,59.7,73.8,83.8,73.5,117.6z"/>
	<path id="XMLID_6_" class="st9" d="M62.8,38c0,0,11.3-17.5,39.4-29.8C102.2,8.2,76.7,15.5,62.8,38z"/>
	<path id="XMLID_5_" class="st9" d="M105.3,220.6c0,0,22.8,28.5,47.5,40.5c0,0-0.9,10.2-8.5,25.8c0,0,5.7-15.5,6.4-24.9
		C150.7,262,126.1,250.8,105.3,220.6z"/>
	<path id="XMLID_4_" class="st9" d="M214.5,237.8c0,0,12.1-24.9,15.7-57.3c0,0-8,36.7-15.4,52.1c-1,2-3.6,5-5.5,6.2
		c-7.2,4.4-26.1,14.3-54.1,19.1C155.2,257.9,186.2,257.2,214.5,237.8z"/>
	<path id="XMLID_3_" class="st5" d="M233.6,179.5c0,0,30.1-17.4,36.8-32.5C270.4,147.1,264.7,165.8,233.6,179.5z"/>
</g>
</svg>
